HIERARCHY
ROOT Hip
{
  OFFSET 0.0 0.0 0.0
  CHANNELS 6 Xposition Yposition Zposition Xrotation Yrotation Zrotation
  JOINT LowerSpine
  {
    OFFSET 0.0 0.061367 -0.03653
    CHANNELS 3 Xrotation Yrotation Zrotation
    JOINT MiddleSpine
    {
      OFFSET 0.0 0.056002 0.002633
      CHANNELS 3 Xrotation Yrotation Zrotation
      JOINT Chest
      {
        OFFSET 0.0 0.069296 -0.013882
        CHANNELS 3 Xrotation Yrotation Zrotation
        JOINT Neck
        {
          OFFSET 0.0 0.156156 -0.002923
          CHANNELS 3 Xrotation Yrotation Zrotation
          JOINT Head
          {
            OFFSET 0.0 0.088183 0.023986
            CHANNELS 3 Xrotation Yrotation Zrotation
            End Site
            {
              OFFSET 1e-06 0.123215 0.003678
            }
          }
        }
        JOINT LClavicle
        {
          OFFSET 0.014189 0.150698 0.046467
          CHANNELS 3 Xrotation Yrotation Zrotation
          JOINT LShoulder
          {
            OFFSET 0.082893 0.021616 -0.034976
            CHANNELS 3 Xrotation Yrotation Zrotation
            JOINT LForearm
            {
              OFFSET 0.195645 -0.000695 -0.001695
              CHANNELS 3 Xrotation Yrotation Zrotation
              JOINT LHand
              {
                OFFSET 0.163209 0.000474 -0.000977
                CHANNELS 3 Xrotation Yrotation Zrotation
                End Site
                {
                  OFFSET 0.0 0.006864 0.0
                }
              }
            }
          }
        }
        JOINT RClavicle
        {
          OFFSET -0.014189 0.150698 0.046467
          CHANNELS 3 Xrotation Yrotation Zrotation
          JOINT RShoulder
          {
            OFFSET -0.082908 0.021619 -0.034982
            CHANNELS 3 Xrotation Yrotation Zrotation
            JOINT RForearm
            {
              OFFSET -0.195645 -0.000695 -0.001695
              CHANNELS 3 Xrotation Yrotation Zrotation
              JOINT RHand
              {
                OFFSET -0.163209 0.000474 -0.000977
                CHANNELS 3 Xrotation Yrotation Zrotation
                End Site
                {
                  OFFSET 0.0 0.006864 0.0
                }
              }
            }
          }
        }
      }
    }
  }
  JOINT RThigh
  {
    OFFSET -0.072558 0.02774 -0.005953
    CHANNELS 3 Xrotation Yrotation Zrotation
    JOINT RShin
    {
      OFFSET -0.005253 -0.285537 0.0
      CHANNELS 3 Xrotation Yrotation Zrotation
      JOINT RFoot
      {
        OFFSET 0.0 -0.28038 0.0
        CHANNELS 3 Xrotation Yrotation Zrotation
        JOINT RToe
        {
          OFFSET 0.0 -0.030816 0.064441
          CHANNELS 3 Xrotation Yrotation Zrotation
          End Site
          {
            OFFSET 0.0 0.0 0.043231
          }
        }
      }
    }
  }
  JOINT LThigh
  {
    OFFSET 0.072557 0.027741 -0.005953
    CHANNELS 3 Xrotation Yrotation Zrotation
    JOINT LShin
    {
      OFFSET 0.005253 -0.285539 0.0
      CHANNELS 3 Xrotation Yrotation Zrotation
      JOINT LFoot
      {
        OFFSET 0.0 -0.28038 0.0
        CHANNELS 3 Xrotation Yrotation Zrotation
        JOINT LToe
        {
          OFFSET 0.0 -0.030816 0.064441
          CHANNELS 3 Xrotation Yrotation Zrotation
          End Site
          {
            OFFSET 0.0 0.0 0.043231
          }
        }
      }
    }
  }
}
MOTION
Frames: 16
Frame Time: 0.03333333333333333
-0.022516 0.565569 -0.068309 4.418178 2.54699 1.132456 2.015687 -0.073049 -0.745148 0.347425 1.330513 -0.092556 -2.374927 3.317507 -2.420244 0.273195 0.439575 0.125615 0.054197 -0.078032 -0.023149 0.053279 -0.411561 -8.691226 15.111742 -27.612778 -50.962894 12.286841 -50.615299 1.927197 0.227846 0.30168 -0.226806 -0.666497 -0.940578 10.639199 1.456886 44.191998 66.038269 6.022009 33.909126 -0.730702 0.241662 -0.540355 0.011993 -21.375198 0.154995 -2.88973 22.71373 -2.410367 3.598891 -2.439168 0.461756 -0.229219 0.174096 0.753272 0.14881 -14.322898 8.143008 5.785294 16.476654 8.614105 -7.339406 -2.71462 -0.07167 0.117716 0.076697 -0.185769 -0.00197 
-0.017958 0.561464 -0.065551 -0.147813 1.02707 1.035765 2.267403 -0.114686 0.274176 -0.460041 1.351189 0.518715 -2.884638 4.643491 -3.407753 1.532602 0.411678 0.335025 0.065783 -0.453574 -0.050742 -1.526159 -2.090988 -8.885163 16.103371 -23.246367 -50.809872 12.391746 -49.740509 3.292561 0.157472 0.257596 -0.186567 -2.331777 1.244509 11.465639 6.149173 36.396343 62.376854 8.451792 39.359928 0.204559 -0.266433 -0.191521 -0.035739 -16.950363 0.248332 -1.949066 22.50419 -0.616329 1.429523 -1.40437 -0.134111 -0.537095 -0.169609 0.334755 0.150467 -5.653737 12.329297 3.406513 9.468728 8.124906 -6.43738 -3.248947 -0.359225 0.423937 0.133266 -0.262164 -0.096187 
-0.017128 0.55967 -0.068332 -0.115933 0.401352 0.973014 1.985826 -0.195992 0.282039 -0.45873 1.245448 0.618538 -3.256353 3.726468 -2.839522 1.585399 0.326569 0.295675 0.055839 -0.391903 -0.044904 -1.738833 -2.304301 -9.257704 16.782907 -22.088793 -52.158367 12.569511 -49.7925 3.462532 0.113631 0.204795 -0.13094 -2.318541 1.7378 11.713144 8.628693 34.175419 60.051521 8.779556 47.380413 1.749349 -0.288793 -0.096987 -0.030752 -16.446978 -1.826001 -1.505545 20.148846 -1.090093 1.224191 -0.953352 0.010247 -0.376861 -0.156063 0.221909 0.114913 -5.63776 12.702755 3.307782 8.516279 8.32085 -6.202781 -2.939252 -0.341736 0.3857 0.11633 -0.203887 -0.074279 
-0.016697 0.560957 -0.072318 -0.333476 -0.005234 1.367743 1.772488 -0.245224 0.276202 -0.474748 1.123046 0.625619 -2.861323 3.219222 -2.184866 1.521593 0.295469 0.277344 0.046582 -0.331212 -0.039312 -1.820575 -2.246417 -9.758606 16.397663 -20.165976 -53.181599 11.876351 -53.23447 3.57435 0.0776 0.158393 -0.081422 -2.271302 2.053624 11.60739 9.722395 30.605528 59.259071 7.220062 56.651566 3.549371 -0.259527 -0.051196 -0.022021 -15.077214 -3.100885 -1.702664 18.390329 -1.582173 1.139646 -1.276528 0.234253 -0.216669 -0.131162 0.154821 0.093763 -4.834695 11.861449 2.500973 7.304377 7.636901 -5.331237 -2.66317 -0.330895 0.355161 0.085237 -0.13058 -0.045115 
-0.013698 0.56282 -0.077754 0.056238 -0.692234 1.558993 1.621914 -0.263402 0.271838 -0.433849 1.070001 0.588838 -2.979944 2.843117 -1.726807 1.4213 0.27622 0.233831 0.040993 -0.283279 -0.03739 -1.748131 -2.082488 -10.051107 16.175745 -19.339844 -53.630146 11.457082 -57.049683 3.463896 0.063531 0.136606 -0.061529 -2.104287 1.896243 11.677588 10.648248 28.670702 58.808277 6.47954 59.839218 4.279305 -0.215268 -0.048235 -0.014818 -14.62629 -4.030715 -1.946923 17.745974 -2.114596 1.288311 -1.494596 0.35929 -0.139516 -0.117736 0.142339 0.086384 -4.930666 11.583417 2.132983 7.2958 7.49051 -5.06669 -2.469037 -0.355042 0.305734 0.067106 -0.087737 -0.023056 
-0.00796 0.564326 -0.082565 0.574106 -2.080815 1.515739 1.582808 -0.292799 0.22598 -0.427733 1.016388 0.578882 -3.57651 2.543811 -1.346552 1.369065 0.265737 0.204915 0.035354 -0.237617 -0.034366 -1.634341 -1.927735 -10.146358 15.689874 -19.306902 -53.686836 10.740749 -59.891205 3.218068 0.058418 0.124195 -0.055533 -1.929364 1.594377 11.661846 11.092023 27.870502 58.771736 6.666428 59.635864 3.945241 -0.17237 -0.053959 -0.00851 -14.739246 -4.787004 -2.22354 17.527962 -2.636007 1.620707 -1.602357 0.430413 -0.099277 -0.106441 0.145698 0.079398 -5.446858 11.469194 2.126981 7.992851 7.54355 -5.07375 -2.383619 -0.376561 0.257384 0.050494 -0.058522 -0.005023 
-0.001208 0.564951 -0.084009 1.20171 -3.493309 1.458779 1.608888 -0.299174 0.147179 -0.478615 0.964853 0.552143 -4.379935 2.125095 -1.002529 1.354434 0.250648 0.194646 0.030545 -0.188862 -0.034004 -1.498835 -1.722918 -10.091671 14.872458 -19.807213 -53.497913 9.578623 -61.446194 2.658105 0.053674 0.112027 -0.049058 -1.746683 1.315162 11.634986 11.064662 27.531404 59.197327 6.883435 57.795204 3.242638 -0.110384 -0.072882 -0.002386 -15.72609 -5.245306 -2.578981 18.234495 -3.117474 2.043048 -1.644174 0.479338 -0.058399 -0.086096 0.147515 0.069102 -6.240935 11.408161 2.123715 9.1066 7.838942 -5.261847 -2.351476 -0.380245 0.199199 0.030775 -0.031638 0.012805 
0.001792 0.565033 -0.081412 1.771588 -4.455981 1.497002 1.670532 -0.290672 0.065255 -0.53951 0.928208 0.505876 -4.978859 1.83843 -0.707882 1.387182 0.240862 0.174146 0.030105 -0.156214 -0.036181 -1.386683 -1.495582 -9.971375 13.945566 -20.479435 -53.352654 8.276665 -61.338009 2.173251 0.0524 0.105682 -0.046651 -1.596563 1.058339 11.61293 10.579412 27.560442 59.947876 7.216547 55.328423 2.197784 -0.062455 -0.091664 0.000899 -16.764782 -5.542133 -2.807715 19.330801 -3.479859 2.398102 -1.655613 0.489603 -0.039938 -0.068309 0.156691 0.063191 -6.903113 11.37293 1.988914 10.199636 8.130635 -5.473216 -2.355055 -0.360194 0.179571 0.018189 -0.017935 0.021441 
0.000961 0.565266 -0.077127 2.43327 -4.994874 1.481864 1.704851 -0.269776 0.021155 -0.578585 0.923773 0.438895 -5.446455 1.715422 -0.539901 1.404381 0.237844 0.154177 0.032058 -0.137825 -0.039017 -1.255767 -1.289943 -9.841687 13.272744 -21.28558 -53.047928 7.451592 -60.384029 1.963062 0.05395 0.104973 -0.048017 -1.4463 0.821167 11.585787 9.7198 28.495707 60.55014 7.547744 52.354652 1.369286 -0.030431 -0.111189 0.002147 -17.580877 -5.681978 -2.828908 20.304163 -3.715838 2.621672 -1.635101 0.47183 -0.038601 -0.060517 0.171069 0.063157 -7.742469 11.394961 2.013028 11.205569 8.503214 -5.699728 -2.298535 -0.354907 0.165304 0.016349 -0.014823 0.023762 
-0.00185 0.565907 -0.071727 2.875804 -5.270409 1.522361 1.733668 -0.246047 0.004298 -0.573412 0.950498 0.382623 -5.595812 1.723327 -0.470823 1.406877 0.237024 0.13615 0.03367 -0.125857 -0.042193 -1.146477 -1.12391 -9.777883 12.788421 -22.038185 -52.778091 6.982731 -59.347164 1.829151 0.054921 0.104976 -0.049366 -1.331304 0.621833 11.582084 8.872376 29.619669 60.883282 7.62057 49.803463 0.886201 -0.009783 -0.12701 0.003022 -17.820795 -5.688298 -2.767864 20.929708 -3.814828 2.7369 -1.674239 0.461659 -0.03337 -0.058378 0.184176 0.065416 -8.296428 11.445415 2.157143 12.048213 8.822678 -5.925688 -2.225824 -0.345363 0.154929 0.018747 -0.014541 0.024048 
-0.005222 0.56682 -0.066305 3.111488 -5.368967 1.611485 1.743665 -0.222037 0.012801 -0.536821 0.990368 0.339931 -5.473892 1.77951 -0.459248 1.3955 0.237359 0.118432 0.034631 -0.120123 -0.045603 -1.063092 -1.012248 -9.800866 12.550121 -22.557335 -52.584618 6.78962 -58.702293 1.827403 0.054855 0.104401 -0.049423 -1.252182 0.475887 11.626138 8.293598 30.493258 60.943192 7.456086 48.155121 0.72146 -0.002174 -0.134572 0.003265 -17.525764 -5.632359 -2.635213 21.086153 -3.824176 2.748265 -1.780033 0.465286 -0.022699 -0.059489 0.192903 0.068494 -8.504909 11.556405 2.355377 12.591435 9.101229 -6.109677 -2.136017 -0.324286 0.154241 0.023415 -0.015601 0.022841 
-0.008277 0.567491 -0.062453 3.279903 -5.311598 1.696208 1.739685 -0.204018 0.028183 -0.495676 1.007682 0.306626 -5.293669 1.831036 -0.49314 1.378621 0.238569 0.103276 0.034848 -0.121774 -0.047467 -1.001127 -0.93712 -9.791446 12.466005 -22.857359 -52.466835 6.767811 -58.630543 1.966756 0.054335 0.104283 -0.049343 -1.195795 0.390693 11.674413 7.889662 31.201141 60.775276 7.367452 46.863098 0.653694 -0.005916 -0.133503 0.002892 -17.050146 -5.562531 -2.37519 20.909988 -3.780016 2.673516 -1.878752 0.471528 -0.012567 -0.061451 0.19761 0.071669 -8.641084 11.729942 2.625094 12.975931 9.361159 -6.233411 -2.02533 -0.293943 0.160741 0.029895 -0.017624 0.021401 
-0.01069 0.56777 -0.060083 3.38336 -5.134921 1.821985 1.729589 -0.193175 0.051494 -0.448004 1.024307 0.28336 -5.083523 1.9002 -0.559992 1.359165 0.246641 0.08959 0.034949 -0.130359 -0.04909 -0.952736 -0.899735 -9.77017 12.519761 -23.042482 -52.456951 6.902845 -58.997452 2.156214 0.054155 0.105422 -0.050003 -1.157078 0.3268 11.729247 7.562508 31.845812 60.47897 7.337655 45.513554 0.624972 -0.018101 -0.128588 0.001816 -16.472515 -5.460937 -2.026695 20.533207 -3.679853 2.518236 -1.993711 0.476152 -0.008954 -0.066557 0.2017 0.076911 -8.719151 11.970455 2.970349 13.273824 9.63816 -6.367424 -1.901143 -0.255399 0.174361 0.037354 -0.021042 0.019007 
-0.012729 0.567582 -0.058886 3.433542 -4.797804 2.019613 1.715878 -0.188516 0.078856 -0.39946 1.04536 0.270981 -4.831847 2.016683 -0.65524 1.338952 0.260691 0.079767 0.035085 -0.143606 -0.050693 -0.914763 -0.893626 -9.741507 12.745468 -23.094761 -52.537888 7.2741 -59.623421 2.384441 0.054258 0.107897 -0.05131 -1.135656 0.281296 11.800433 7.267848 32.522434 60.173775 7.283682 44.011139 0.655273 -0.035391 -0.121577 0.000377 -15.884918 -5.281055 -1.668876 20.01844 -3.52155 2.311404 -2.128848 0.473535 -0.014425 -0.073812 0.205861 0.083805 -8.793777 12.242029 3.364254 13.505716 9.898303 -6.510319 -1.766789 -0.217629 0.188973 0.04534 -0.025365 0.015843 
-0.014481 0.566831 -0.058748 3.41101 -4.318652 2.222479 1.694048 -0.19069 0.103122 -0.356032 1.072875 0.271743 -4.538394 2.189903 -0.745047 1.313768 0.279062 0.074137 0.034715 -0.157841 -0.051728 -0.886686 -0.905192 -9.717715 13.122859 -23.078894 -52.716805 7.817921 -60.200668 2.629029 0.054495 0.11105 -0.052861 -1.122797 0.254172 11.871484 7.027196 33.250687 59.88802 7.242466 42.486782 0.721713 -0.054821 -0.114067 -0.0011 -15.35868 -5.071291 -1.326982 19.435982 -3.338568 2.097162 -2.269203 0.471875 -0.025521 -0.083011 0.207273 0.090548 -8.938491 12.415454 3.81449 13.769305 10.060118 -6.62008 -1.652793 -0.18886 0.194997 0.052398 -0.029492 0.012588 
-0.016552 0.565419 -0.05969 3.400568 -3.626001 2.459522 1.664265 -0.186892 0.12757 -0.312564 1.09147 0.254023 -4.150677 2.396779 -0.919588 1.294486 0.293876 0.07479 0.033699 -0.168735 -0.05064 -0.880833 -0.923294 -9.686821 13.624949 -22.909622 -52.947338 8.580385 -60.63081 2.816998 0.053199 0.112216 -0.052673 -1.124798 0.281933 11.91213 6.798484 34.162819 59.628284 7.308353 41.126728 0.831325 -0.073936 -0.104655 -0.001874 -15.126737 -4.713823 -1.034313 19.134634 -3.045386 1.879191 -2.432657 0.460544 -0.041937 -0.093147 0.202081 0.094466 -9.369877 12.632578 4.388639 14.258508 10.307963 -6.752277 -1.531697 -0.168215 0.18814 0.05821 -0.032275 0.009921 
